<svg width="518" height="297" viewBox="0 0 518 297" fill="none" xmlns="http://www.w3.org/2000/svg">
<path fill-rule="evenodd" clip-rule="evenodd" d="M1.23877 1.35155H516.672V295.84H1.23877V1.35155Z" fill="white"/>
<path fill-rule="evenodd" clip-rule="evenodd" d="M1.23877 1.35155H516.672V295.84H1.23877V1.35155Z" stroke="#FEFEFE" stroke-miterlimit="10" stroke-linejoin="round"/>
<path fill-rule="evenodd" clip-rule="evenodd" d="M333.118 20.3911H498.787V129.619H333.118V20.3911Z" fill="#EEEEEE"/>
<path fill-rule="evenodd" clip-rule="evenodd" d="M333.118 20.3911H498.787V129.619H333.118V20.3911Z" stroke="black" stroke-width="4" stroke-miterlimit="10" stroke-linejoin="round"/>
<path fill-rule="evenodd" clip-rule="evenodd" d="M17.7585 20.3911H183.428V273.588H17.7585V20.3911Z" fill="#FFF2CC"/>
<path fill-rule="evenodd" clip-rule="evenodd" d="M17.7585 20.3911H183.428V273.588H17.7585V20.3911Z" stroke="black" stroke-width="2" stroke-miterlimit="10" stroke-linejoin="round"/>
<path d="M41.3978 156.138C41.0124 156.138 40.6791 155.997 40.3978 155.716C40.1166 155.435 39.976 155.101 39.976 154.716V154.544C39.976 154.148 40.1166 153.81 40.3978 153.528C40.6791 153.237 41.0124 153.091 41.3978 153.091H47.9291C48.0853 153.091 48.1635 153.023 48.1635 152.888V141.497C48.1635 141.362 48.0853 141.294 47.9291 141.294H42.1635C41.778 141.294 41.4447 141.153 41.1635 140.872C40.8822 140.58 40.7416 140.237 40.7416 139.841V139.669C40.7416 139.283 40.8822 138.95 41.1635 138.669C41.4447 138.388 41.778 138.247 42.1635 138.247H57.7103C58.0957 138.247 58.4291 138.388 58.7103 138.669C58.9916 138.95 59.1322 139.283 59.1322 139.669V139.841C59.1322 140.237 58.9916 140.58 58.7103 140.872C58.4291 141.153 58.0957 141.294 57.7103 141.294H51.9447C51.7885 141.294 51.7103 141.362 51.7103 141.497V152.888C51.7103 153.023 51.7885 153.091 51.9447 153.091H58.476C58.8614 153.091 59.1947 153.237 59.476 153.528C59.7572 153.81 59.8978 154.148 59.8978 154.544V154.716C59.8978 155.101 59.7572 155.435 59.476 155.716C59.1947 155.997 58.8614 156.138 58.476 156.138H41.3978ZM86.101 135.966C86.1843 136.143 86.3041 136.393 86.4604 136.716C86.627 137.028 86.7468 137.252 86.8197 137.388C86.9864 137.731 87.0072 138.07 86.8822 138.403C86.7676 138.737 86.5385 138.992 86.1947 139.169C85.8614 139.336 85.5229 139.362 85.1791 139.247C84.8354 139.122 84.5697 138.893 84.3822 138.56C84.226 138.247 83.9812 137.789 83.6479 137.185C83.4812 136.851 83.4499 136.513 83.5541 136.169C83.6687 135.815 83.8926 135.554 84.226 135.388C84.5697 135.221 84.9239 135.2 85.2885 135.325C85.6635 135.44 85.9343 135.653 86.101 135.966ZM67.3354 139.169C67.3354 138.773 67.476 138.44 67.7572 138.169C68.0385 137.888 68.3718 137.747 68.7572 137.747H79.7416C79.7937 137.747 79.8301 137.721 79.851 137.669C79.8822 137.617 79.8822 137.575 79.851 137.544V137.513C79.6843 137.19 79.6531 136.856 79.7572 136.513C79.8718 136.169 80.0906 135.914 80.4135 135.747C80.7468 135.58 81.0854 135.554 81.4291 135.669C81.7729 135.783 82.0385 136.013 82.226 136.356C82.3093 136.502 82.4291 136.726 82.5854 137.028C82.7416 137.32 82.8614 137.544 82.9447 137.7C83.1114 138.033 83.1322 138.372 83.0072 138.716C82.8926 139.049 82.6687 139.289 82.3354 139.435C82.1999 139.507 82.0958 139.554 82.0229 139.575C81.877 139.606 81.7937 139.669 81.7729 139.763C81.6895 140.054 81.5176 140.299 81.2572 140.497C81.0072 140.685 80.726 140.778 80.4135 140.778H68.7572C68.3718 140.778 68.0385 140.638 67.7572 140.356C67.476 140.065 67.3354 139.726 67.3354 139.341V139.169ZM86.1635 146.185C86.1635 146.57 86.0176 146.908 85.726 147.2C85.4343 147.481 85.0958 147.622 84.7104 147.622H78.101C77.9447 147.622 77.8666 147.69 77.8666 147.825C77.8354 150.44 77.2051 152.549 75.976 154.153C74.7468 155.747 72.8458 156.914 70.2729 157.653C69.8874 157.768 69.5176 157.721 69.1635 157.513C68.8093 157.315 68.5645 157.023 68.4291 156.638L68.3197 156.341C68.2051 155.966 68.2416 155.612 68.4291 155.278C68.6166 154.935 68.8926 154.705 69.2572 154.591C71.0489 154.018 72.3301 153.205 73.101 152.153C73.8822 151.091 74.2937 149.638 74.3354 147.794C74.3354 147.679 74.2676 147.622 74.1322 147.622H65.8197C65.4343 147.622 65.0958 147.481 64.8041 147.2C64.5124 146.908 64.3666 146.57 64.3666 146.185V145.997C64.3666 145.612 64.5124 145.278 64.8041 144.997C65.0958 144.716 65.4343 144.575 65.8197 144.575H84.7104C85.0958 144.575 85.4343 144.716 85.726 144.997C86.0176 145.278 86.1635 145.612 86.1635 145.997V146.185ZM94.101 150.888C93.7156 150.961 93.3666 150.882 93.0541 150.653C92.7416 150.424 92.5489 150.106 92.476 149.7C92.4135 149.325 92.4968 148.981 92.726 148.669C92.9552 148.346 93.2625 148.143 93.6479 148.06C96.0125 147.601 98.3041 146.851 100.523 145.81C102.742 144.768 104.69 143.533 106.367 142.106C106.648 141.846 106.976 141.737 107.351 141.778C107.736 141.81 108.049 141.966 108.289 142.247C108.539 142.56 108.653 142.914 108.632 143.31C108.622 143.705 108.466 144.028 108.164 144.278C106.789 145.445 105.257 146.502 103.57 147.45C103.424 147.513 103.367 147.612 103.398 147.747C103.398 147.778 103.403 147.815 103.414 147.856C103.424 147.888 103.429 147.919 103.429 147.95V156.106C103.429 156.492 103.283 156.825 102.992 157.106C102.7 157.398 102.361 157.544 101.976 157.544H101.601C101.216 157.544 100.877 157.398 100.585 157.106C100.294 156.825 100.148 156.492 100.148 156.106V149.263C100.148 149.148 100.091 149.106 99.976 149.138C97.9968 149.929 96.0385 150.513 94.101 150.888ZM116.664 148.075L116.507 147.919C116.216 147.669 116.059 147.346 116.039 146.95C116.028 146.554 116.148 146.211 116.398 145.919C118.46 143.544 119.82 140.783 120.476 137.638C120.559 137.231 120.757 136.903 121.07 136.653C121.382 136.403 121.742 136.283 122.148 136.294H122.476C122.872 136.336 123.195 136.502 123.445 136.794C123.695 137.086 123.789 137.429 123.726 137.825L123.648 138.356C123.617 138.502 123.669 138.575 123.804 138.575H133.726C134.111 138.575 134.445 138.721 134.726 139.013C135.007 139.294 135.148 139.632 135.148 140.028C135.096 145.56 133.83 149.705 131.351 152.466C128.882 155.216 124.966 156.903 119.601 157.528C119.195 157.58 118.835 157.476 118.523 157.216C118.21 156.966 118.018 156.638 117.945 156.231L117.929 156.028C117.856 155.643 117.934 155.299 118.164 154.997C118.393 154.695 118.695 154.518 119.07 154.466C123.528 153.872 126.69 152.554 128.554 150.513C128.658 150.408 128.653 150.325 128.539 150.263C127.122 149.533 125.278 148.653 123.007 147.622C122.653 147.455 122.414 147.185 122.289 146.81C122.164 146.435 122.195 146.08 122.382 145.747L122.617 145.341C122.794 144.987 123.07 144.742 123.445 144.606C123.83 144.471 124.21 144.487 124.585 144.653C126.294 145.455 128.184 146.367 130.257 147.388C130.361 147.44 130.445 147.398 130.507 147.263C131.07 145.794 131.419 143.981 131.554 141.825C131.554 141.69 131.486 141.622 131.351 141.622H123.085H122.945C122.789 141.591 122.684 141.648 122.632 141.794C121.757 144.054 120.46 146.122 118.742 147.997C118.471 148.289 118.132 148.445 117.726 148.466C117.32 148.476 116.966 148.346 116.664 148.075ZM142.21 148.888C141.825 148.888 141.492 148.747 141.21 148.466C140.929 148.174 140.789 147.836 140.789 147.45V146.935C140.789 146.549 140.929 146.216 141.21 145.935C141.492 145.643 141.825 145.497 142.21 145.497H160.289C160.674 145.497 161.007 145.643 161.289 145.935C161.57 146.216 161.71 146.549 161.71 146.935V147.45C161.71 147.836 161.57 148.174 161.289 148.466C161.007 148.747 160.674 148.888 160.289 148.888H142.21Z" fill="black"/>
<path fill-rule="evenodd" clip-rule="evenodd" d="M191.709 58.9966L151.331 44.6974L191.709 30.3982V58.9966Z" fill="white"/>
<path fill-rule="evenodd" clip-rule="evenodd" d="M191.709 58.9966L151.331 44.6974L191.709 30.3982V58.9966Z" stroke="#595959" stroke-width="2" stroke-miterlimit="10" stroke-linejoin="round"/>
<path fill-rule="evenodd" clip-rule="evenodd" d="M191.709 119.375L151.331 105.076L191.709 90.7767V119.375Z" fill="white"/>
<path fill-rule="evenodd" clip-rule="evenodd" d="M191.709 119.375L151.331 105.076L191.709 90.7767V119.375Z" stroke="#595959" stroke-width="2" stroke-miterlimit="10" stroke-linejoin="round"/>
<path fill-rule="evenodd" clip-rule="evenodd" d="M184.105 20.3911H241.554V129.619H184.105V20.3911Z" fill="white"/>
<path fill-rule="evenodd" clip-rule="evenodd" d="M341.234 58.9966L300.856 44.6974L341.234 30.3982V58.9966Z" fill="#F4CCCC"/>
<path fill-rule="evenodd" clip-rule="evenodd" d="M341.234 58.9966L300.856 44.6974L341.234 30.3982V58.9966Z" stroke="#595959" stroke-width="2" stroke-miterlimit="10" stroke-linejoin="round"/>
<path fill-rule="evenodd" clip-rule="evenodd" d="M341.234 119.375L300.856 105.076L341.234 90.7767V119.375Z" fill="#F4CCCC"/>
<path fill-rule="evenodd" clip-rule="evenodd" d="M341.234 119.375L300.856 105.076L341.234 90.7767V119.375Z" stroke="#595959" stroke-width="2" stroke-miterlimit="10" stroke-linejoin="round"/>
<path fill-rule="evenodd" clip-rule="evenodd" d="M333.118 20.3911H498.787V129.619H333.118V20.3911Z" fill="#F4CCCC"/>
<path d="M361.151 84.1534C360.766 84.1534 360.433 84.0128 360.151 83.7315C359.87 83.4503 359.729 83.1169 359.729 82.7315V82.5596C359.729 82.1638 359.87 81.8253 360.151 81.544C360.433 81.2523 360.766 81.1065 361.151 81.1065H367.683C367.839 81.1065 367.917 81.0388 367.917 80.9034V69.5128C367.917 69.3773 367.839 69.3096 367.683 69.3096H361.917C361.532 69.3096 361.198 69.169 360.917 68.8878C360.636 68.5961 360.495 68.2523 360.495 67.8565V67.6846C360.495 67.2992 360.636 66.9659 360.917 66.6846C361.198 66.4034 361.532 66.2628 361.917 66.2628H377.464C377.849 66.2628 378.183 66.4034 378.464 66.6846C378.745 66.9659 378.886 67.2992 378.886 67.6846V67.8565C378.886 68.2523 378.745 68.5961 378.464 68.8878C378.183 69.169 377.849 69.3096 377.464 69.3096H371.698C371.542 69.3096 371.464 69.3773 371.464 69.5128V80.9034C371.464 81.0388 371.542 81.1065 371.698 81.1065H378.229C378.615 81.1065 378.948 81.2523 379.229 81.544C379.511 81.8253 379.651 82.1638 379.651 82.5596V82.7315C379.651 83.1169 379.511 83.4503 379.229 83.7315C378.948 84.0128 378.615 84.1534 378.229 84.1534H361.151ZM387.058 68.9815C386.704 68.8044 386.464 68.5336 386.339 68.169C386.224 67.794 386.261 67.4398 386.448 67.1065L386.698 66.5909C386.886 66.2367 387.167 66.0023 387.542 65.8878C387.927 65.7732 388.308 65.7992 388.683 65.9659C390.349 66.7784 392.115 67.6898 393.98 68.7003C394.313 68.8878 394.532 69.1742 394.636 69.5596C394.75 69.9451 394.714 70.3096 394.526 70.6534L394.261 71.1534C394.073 71.4867 393.782 71.7107 393.386 71.8253C393 71.9398 392.641 71.9034 392.308 71.7159C390.329 70.6326 388.579 69.7211 387.058 68.9815ZM404.683 68.169C405.079 68.2523 405.386 68.4659 405.605 68.8096C405.823 69.143 405.891 69.5023 405.808 69.8878C404.808 74.2315 402.86 77.6273 399.964 80.0753C397.068 82.5232 393.162 84.0596 388.245 84.6846C387.839 84.7367 387.48 84.6378 387.167 84.3878C386.855 84.1482 386.667 83.8253 386.605 83.419L386.558 82.9503C386.485 82.5648 386.568 82.2159 386.808 81.9034C387.047 81.5909 387.36 81.4086 387.745 81.3565C391.901 80.7836 395.167 79.518 397.542 77.5596C399.927 75.6013 401.594 72.8096 402.542 69.1846C402.636 68.7888 402.849 68.4815 403.183 68.2628C403.526 68.044 403.891 67.9763 404.276 68.0596L404.683 68.169ZM429.636 69.1065C430.032 69.169 430.339 69.3617 430.558 69.6846C430.776 70.0076 430.844 70.3617 430.761 70.7471C429.73 75.3721 427.849 78.8253 425.12 81.1065C422.391 83.3878 418.443 84.8305 413.276 85.4346C412.87 85.4867 412.511 85.3878 412.198 85.1378C411.886 84.8982 411.698 84.5753 411.636 84.169L411.589 83.794C411.516 83.419 411.594 83.0805 411.823 82.7784C412.063 82.4763 412.381 82.2992 412.776 82.2471C417.266 81.7263 420.625 80.5648 422.855 78.7628C425.084 76.9503 426.646 74.1013 427.542 70.2159C427.625 69.8305 427.834 69.5232 428.167 69.294C428.511 69.0648 428.875 68.9867 429.261 69.0596L429.636 69.1065ZM427.792 67.7159C427.469 67.8617 427.136 67.8826 426.792 67.7784C426.448 67.6638 426.193 67.4451 426.026 67.1221C425.933 66.9763 425.808 66.7576 425.651 66.4659C425.506 66.1638 425.391 65.9346 425.308 65.7784C425.141 65.4659 425.11 65.1378 425.214 64.794C425.329 64.4398 425.547 64.1794 425.87 64.0128C426.204 63.8461 426.542 63.8201 426.886 63.9346C427.24 64.0492 427.506 64.2784 427.683 64.6221C427.776 64.768 427.896 64.9919 428.042 65.294C428.198 65.5857 428.318 65.8096 428.401 65.9659C428.568 66.2992 428.589 66.6378 428.464 66.9815C428.349 67.3148 428.125 67.5596 427.792 67.7159ZM431.573 64.2471C431.657 64.4138 431.776 64.6586 431.933 64.9815C432.089 65.294 432.204 65.518 432.276 65.6534C432.443 65.9971 432.464 66.3409 432.339 66.6846C432.224 67.018 432 67.268 431.667 67.4346C431.334 67.6013 430.99 67.6273 430.636 67.5128C430.292 67.3878 430.026 67.1586 429.839 66.8253C429.693 66.5232 429.448 66.0648 429.105 65.4503C428.938 65.1169 428.907 64.7784 429.011 64.4346C429.125 64.0805 429.349 63.8201 429.683 63.6534C430.026 63.4867 430.381 63.4659 430.745 63.5909C431.12 63.7055 431.396 63.9242 431.573 64.2471ZM411.761 74.4659C411.375 74.4034 411.068 74.2107 410.839 73.8878C410.61 73.5648 410.537 73.2107 410.62 72.8253L410.651 72.6534C410.714 72.2576 410.922 71.9451 411.276 71.7159C411.631 71.4763 412 71.3982 412.386 71.4815C413.334 71.6482 415.177 72.0023 417.917 72.544C418.302 72.6169 418.599 72.8201 418.808 73.1534C419.026 73.4763 419.089 73.8409 418.995 74.2471L418.98 74.419C418.896 74.8044 418.688 75.1117 418.355 75.3409C418.032 75.5596 417.683 75.6326 417.308 75.5596C414.079 74.9242 412.23 74.5596 411.761 74.4659ZM419.339 66.3878C419.724 66.4607 420.026 66.669 420.245 67.0128C420.464 67.3461 420.532 67.7055 420.448 68.0909L420.401 68.3253C420.329 68.7107 420.125 69.0128 419.792 69.2315C419.469 69.4503 419.115 69.518 418.73 69.4346C416.636 69.0076 414.709 68.643 412.948 68.3409C412.563 68.2784 412.256 68.0857 412.026 67.7628C411.797 67.4398 411.714 67.0857 411.776 66.7003L411.839 66.4971C411.901 66.1117 412.099 65.7992 412.433 65.5596C412.776 65.3201 413.141 65.2367 413.526 65.3096C415.214 65.5909 417.151 65.9503 419.339 66.3878ZM437.714 68.9815C437.36 68.8044 437.12 68.5336 436.995 68.169C436.881 67.794 436.917 67.4398 437.105 67.1065L437.355 66.5909C437.542 66.2367 437.823 66.0023 438.198 65.8878C438.584 65.7732 438.964 65.7992 439.339 65.9659C441.006 66.7784 442.771 67.6898 444.636 68.7003C444.969 68.8878 445.188 69.1742 445.292 69.5596C445.407 69.9451 445.37 70.3096 445.183 70.6534L444.917 71.1534C444.73 71.4867 444.438 71.7107 444.042 71.8253C443.657 71.9398 443.297 71.9034 442.964 71.7159C440.985 70.6326 439.235 69.7211 437.714 68.9815ZM455.339 68.169C455.735 68.2523 456.042 68.4659 456.261 68.8096C456.48 69.143 456.547 69.5023 456.464 69.8878C455.464 74.2315 453.516 77.6273 450.62 80.0753C447.724 82.5232 443.818 84.0596 438.901 84.6846C438.495 84.7367 438.136 84.6378 437.823 84.3878C437.511 84.1482 437.323 83.8253 437.261 83.419L437.214 82.9503C437.141 82.5648 437.224 82.2159 437.464 81.9034C437.704 81.5909 438.016 81.4086 438.401 81.3565C442.558 80.7836 445.823 79.518 448.198 77.5596C450.584 75.6013 452.25 72.8096 453.198 69.1846C453.292 68.7888 453.506 68.4815 453.839 68.2628C454.183 68.044 454.547 67.9763 454.933 68.0596L455.339 68.169ZM466.698 68.9815L464.464 76.9346C464.443 76.9867 464.448 77.0388 464.48 77.0909C464.521 77.1326 464.568 77.1534 464.62 77.1534H468.823C468.875 77.1534 468.917 77.1326 468.948 77.0909C468.98 77.0388 468.985 76.9867 468.964 76.9346L466.745 68.9815C466.745 68.9607 466.735 68.9503 466.714 68.9503C466.704 68.9503 466.698 68.9607 466.698 68.9815ZM460.136 84.3253C459.782 84.3253 459.5 84.1846 459.292 83.9034C459.094 83.6117 459.053 83.294 459.167 82.9503L464.417 67.2003C464.563 66.794 464.808 66.4659 465.151 66.2159C465.506 65.9659 465.891 65.8409 466.308 65.8409H467.23C467.667 65.8409 468.058 65.9659 468.401 66.2159C468.745 66.4659 468.985 66.794 469.12 67.2003L474.37 82.9503C474.485 83.294 474.438 83.6117 474.23 83.9034C474.032 84.1846 473.756 84.3253 473.401 84.3253H472.495C472.089 84.3253 471.709 84.1951 471.355 83.9346C471.011 83.6742 470.782 83.3409 470.667 82.9346L469.855 80.0753C469.844 79.9398 469.75 79.8721 469.573 79.8721H463.855C463.698 79.8721 463.605 79.9398 463.573 80.0753L462.761 82.9346C462.667 83.3409 462.443 83.6742 462.089 83.9346C461.745 84.1951 461.365 84.3253 460.948 84.3253H460.136Z" fill="black"/>
<path fill-rule="evenodd" clip-rule="evenodd" d="M285.023 80.3962H231.614V89.0227L214.661 75.007L231.614 60.9912V69.6178H285.023V80.3962Z" fill="#212121"/>
<path fill-rule="evenodd" clip-rule="evenodd" d="M333.118 164.36H498.787V273.588H333.118V164.36Z" fill="#EEEEEE"/>
<path fill-rule="evenodd" clip-rule="evenodd" d="M333.118 164.36H498.787V273.588H333.118V164.36Z" stroke="black" stroke-width="4" stroke-miterlimit="10" stroke-linejoin="round"/>
<path fill-rule="evenodd" clip-rule="evenodd" d="M191.709 202.965L151.331 188.666L191.709 174.367V202.965Z" fill="white"/>
<path fill-rule="evenodd" clip-rule="evenodd" d="M191.709 202.965L151.331 188.666L191.709 174.367V202.965Z" stroke="#595959" stroke-width="2" stroke-miterlimit="10" stroke-linejoin="round"/>
<path fill-rule="evenodd" clip-rule="evenodd" d="M191.709 263.344L151.331 249.044L191.709 234.745V263.344Z" fill="white"/>
<path fill-rule="evenodd" clip-rule="evenodd" d="M191.709 263.344L151.331 249.044L191.709 234.745V263.344Z" stroke="#595959" stroke-width="2" stroke-miterlimit="10" stroke-linejoin="round"/>
<path fill-rule="evenodd" clip-rule="evenodd" d="M184.105 164.36H241.554V273.588H184.105V164.36Z" fill="white"/>
<path fill-rule="evenodd" clip-rule="evenodd" d="M341.234 202.965L300.856 188.666L341.234 174.367V202.965Z" fill="#C9DAF8"/>
<path fill-rule="evenodd" clip-rule="evenodd" d="M341.234 202.965L300.856 188.666L341.234 174.367V202.965Z" stroke="#595959" stroke-width="2" stroke-miterlimit="10" stroke-linejoin="round"/>
<path fill-rule="evenodd" clip-rule="evenodd" d="M341.234 263.344L300.856 249.044L341.234 234.745V263.344Z" fill="#C9DAF8"/>
<path fill-rule="evenodd" clip-rule="evenodd" d="M341.234 263.344L300.856 249.044L341.234 234.745V263.344Z" stroke="#595959" stroke-width="2" stroke-miterlimit="10" stroke-linejoin="round"/>
<path fill-rule="evenodd" clip-rule="evenodd" d="M333.118 164.36H498.787V273.588H333.118V164.36Z" fill="#C9DAF8"/>
<path d="M361.582 228.122C361.197 228.122 360.863 227.981 360.582 227.7C360.301 227.419 360.16 227.085 360.16 226.7V226.528C360.16 226.132 360.301 225.794 360.582 225.513C360.863 225.221 361.197 225.075 361.582 225.075H368.113C368.269 225.075 368.348 225.007 368.348 224.872V213.481C368.348 213.346 368.269 213.278 368.113 213.278H362.348C361.962 213.278 361.629 213.138 361.348 212.856C361.066 212.565 360.926 212.221 360.926 211.825V211.653C360.926 211.268 361.066 210.934 361.348 210.653C361.629 210.372 361.962 210.231 362.348 210.231H377.894C378.28 210.231 378.613 210.372 378.894 210.653C379.176 210.934 379.316 211.268 379.316 211.653V211.825C379.316 212.221 379.176 212.565 378.894 212.856C378.613 213.138 378.28 213.278 377.894 213.278H372.129C371.973 213.278 371.894 213.346 371.894 213.481V224.872C371.894 225.007 371.973 225.075 372.129 225.075H378.66C379.046 225.075 379.379 225.221 379.66 225.513C379.941 225.794 380.082 226.132 380.082 226.528V226.7C380.082 227.085 379.941 227.419 379.66 227.7C379.379 227.981 379.046 228.122 378.66 228.122H361.582ZM387.488 212.95C387.134 212.773 386.894 212.502 386.769 212.138C386.655 211.763 386.691 211.408 386.879 211.075L387.129 210.559C387.316 210.205 387.598 209.971 387.973 209.856C388.358 209.742 388.738 209.768 389.113 209.934C390.78 210.747 392.546 211.658 394.41 212.669C394.743 212.856 394.962 213.143 395.066 213.528C395.181 213.914 395.144 214.278 394.957 214.622L394.691 215.122C394.504 215.455 394.212 215.679 393.816 215.794C393.431 215.908 393.072 215.872 392.738 215.684C390.759 214.601 389.009 213.69 387.488 212.95ZM405.113 212.138C405.509 212.221 405.816 212.434 406.035 212.778C406.254 213.111 406.322 213.471 406.238 213.856C405.238 218.2 403.29 221.596 400.394 224.044C397.499 226.492 393.592 228.028 388.676 228.653C388.269 228.705 387.91 228.606 387.598 228.356C387.285 228.117 387.098 227.794 387.035 227.388L386.988 226.919C386.915 226.533 386.999 226.184 387.238 225.872C387.478 225.559 387.79 225.377 388.176 225.325C392.332 224.752 395.598 223.486 397.973 221.528C400.358 219.57 402.025 216.778 402.973 213.153C403.066 212.757 403.28 212.45 403.613 212.231C403.957 212.013 404.322 211.945 404.707 212.028L405.113 212.138ZM430.066 213.075C430.462 213.138 430.77 213.33 430.988 213.653C431.207 213.976 431.275 214.33 431.191 214.716C430.16 219.341 428.28 222.794 425.551 225.075C422.822 227.356 418.874 228.799 413.707 229.403C413.301 229.455 412.941 229.356 412.629 229.106C412.316 228.867 412.129 228.544 412.066 228.138L412.02 227.763C411.947 227.388 412.025 227.049 412.254 226.747C412.493 226.445 412.811 226.268 413.207 226.216C417.697 225.695 421.056 224.533 423.285 222.731C425.514 220.919 427.077 218.07 427.973 214.184C428.056 213.799 428.264 213.492 428.598 213.263C428.941 213.033 429.306 212.955 429.691 213.028L430.066 213.075ZM428.223 211.684C427.9 211.83 427.566 211.851 427.223 211.747C426.879 211.632 426.624 211.414 426.457 211.091C426.363 210.945 426.238 210.726 426.082 210.434C425.936 210.132 425.822 209.903 425.738 209.747C425.572 209.434 425.54 209.106 425.645 208.763C425.759 208.408 425.978 208.148 426.301 207.981C426.634 207.815 426.973 207.789 427.316 207.903C427.671 208.018 427.936 208.247 428.113 208.591C428.207 208.736 428.327 208.96 428.473 209.263C428.629 209.554 428.749 209.778 428.832 209.934C428.999 210.268 429.02 210.606 428.895 210.95C428.78 211.283 428.556 211.528 428.223 211.684ZM432.004 208.216C432.087 208.382 432.207 208.627 432.363 208.95C432.52 209.263 432.634 209.486 432.707 209.622C432.874 209.966 432.895 210.309 432.77 210.653C432.655 210.986 432.431 211.236 432.098 211.403C431.764 211.57 431.421 211.596 431.066 211.481C430.723 211.356 430.457 211.127 430.27 210.794C430.124 210.492 429.879 210.033 429.535 209.419C429.368 209.085 429.337 208.747 429.441 208.403C429.556 208.049 429.78 207.789 430.113 207.622C430.457 207.455 430.811 207.434 431.176 207.559C431.551 207.674 431.827 207.893 432.004 208.216ZM412.191 218.434C411.806 218.372 411.499 218.179 411.27 217.856C411.04 217.533 410.967 217.179 411.051 216.794L411.082 216.622C411.145 216.226 411.353 215.914 411.707 215.684C412.061 215.445 412.431 215.367 412.816 215.45C413.764 215.617 415.608 215.971 418.348 216.513C418.733 216.585 419.03 216.789 419.238 217.122C419.457 217.445 419.52 217.809 419.426 218.216L419.41 218.388C419.327 218.773 419.118 219.08 418.785 219.309C418.462 219.528 418.113 219.601 417.738 219.528C414.509 218.893 412.66 218.528 412.191 218.434ZM419.77 210.356C420.155 210.429 420.457 210.638 420.676 210.981C420.895 211.315 420.962 211.674 420.879 212.059L420.832 212.294C420.759 212.679 420.556 212.981 420.223 213.2C419.9 213.419 419.546 213.486 419.16 213.403C417.066 212.976 415.139 212.611 413.379 212.309C412.993 212.247 412.686 212.054 412.457 211.731C412.228 211.408 412.145 211.054 412.207 210.669L412.27 210.466C412.332 210.08 412.53 209.768 412.863 209.528C413.207 209.289 413.572 209.205 413.957 209.278C415.645 209.559 417.582 209.919 419.77 210.356ZM438.145 212.95C437.79 212.773 437.551 212.502 437.426 212.138C437.311 211.763 437.348 211.408 437.535 211.075L437.785 210.559C437.973 210.205 438.254 209.971 438.629 209.856C439.014 209.742 439.395 209.768 439.77 209.934C441.436 210.747 443.202 211.658 445.066 212.669C445.4 212.856 445.618 213.143 445.723 213.528C445.837 213.914 445.801 214.278 445.613 214.622L445.348 215.122C445.16 215.455 444.868 215.679 444.473 215.794C444.087 215.908 443.728 215.872 443.395 215.684C441.415 214.601 439.665 213.69 438.145 212.95ZM455.77 212.138C456.165 212.221 456.473 212.434 456.691 212.778C456.91 213.111 456.978 213.471 456.895 213.856C455.895 218.2 453.947 221.596 451.051 224.044C448.155 226.492 444.249 228.028 439.332 228.653C438.926 228.705 438.566 228.606 438.254 228.356C437.941 228.117 437.754 227.794 437.691 227.388L437.645 226.919C437.572 226.533 437.655 226.184 437.895 225.872C438.134 225.559 438.447 225.377 438.832 225.325C442.988 224.752 446.254 223.486 448.629 221.528C451.014 219.57 452.681 216.778 453.629 213.153C453.723 212.757 453.936 212.45 454.27 212.231C454.613 212.013 454.978 211.945 455.363 212.028L455.77 212.138ZM464.27 220.091V225.403C464.27 225.539 464.343 225.622 464.488 225.653C465.082 225.747 465.639 225.794 466.16 225.794C467.566 225.794 468.593 225.539 469.238 225.028C469.895 224.507 470.223 223.716 470.223 222.653C470.223 221.705 469.843 221.007 469.082 220.559C468.332 220.111 467.087 219.888 465.348 219.888H464.473C464.337 219.888 464.27 219.955 464.27 220.091ZM464.27 212.684V217.028C464.27 217.174 464.337 217.247 464.473 217.247H465.207C466.77 217.247 467.9 217.033 468.598 216.606C469.306 216.179 469.66 215.544 469.66 214.7C469.66 213.888 469.374 213.289 468.801 212.903C468.228 212.507 467.29 212.309 465.988 212.309C465.395 212.309 464.889 212.346 464.473 212.419C464.337 212.45 464.27 212.539 464.27 212.684ZM462.191 228.341C461.785 228.309 461.447 228.138 461.176 227.825C460.905 227.513 460.77 227.143 460.77 226.716V211.372C460.77 210.955 460.905 210.591 461.176 210.278C461.447 209.966 461.79 209.789 462.207 209.747C463.457 209.611 464.665 209.544 465.832 209.544C470.561 209.544 472.926 211.091 472.926 214.184C472.926 215.216 472.577 216.111 471.879 216.872C471.191 217.632 470.285 218.122 469.16 218.341C469.139 218.341 469.129 218.351 469.129 218.372C469.129 218.403 469.139 218.419 469.16 218.419C470.546 218.617 471.629 219.127 472.41 219.95C473.191 220.763 473.582 221.773 473.582 222.981C473.582 224.835 472.973 226.226 471.754 227.153C470.546 228.08 468.655 228.544 466.082 228.544C464.801 228.544 463.504 228.476 462.191 228.341Z" fill="black"/>
<path fill-rule="evenodd" clip-rule="evenodd" d="M285.023 224.365H231.614V232.991L214.661 218.975L231.614 204.96V213.586H285.023V224.365Z" fill="#212121"/>
</svg>
